<svg id="visual" viewBox="0 0 900 900" width="900" height="900" xmlns="http://www.w3.org/2000/svg" xmlns:xlink="http://www.w3.org/1999/xlink" version="1.1"><rect x="0" y="0" width="900" height="900" fill="#171717"></rect><defs><linearGradient id="grad1_0" x1="0%" y1="0%" x2="100%" y2="100%"><stop offset="30%" stop-color="#698f3f" stop-opacity="1"></stop><stop offset="70%" stop-color="#698f3f" stop-opacity="1"></stop></linearGradient></defs><defs><linearGradient id="grad1_1" x1="0%" y1="0%" x2="100%" y2="100%"><stop offset="30%" stop-color="#698f3f" stop-opacity="1"></stop><stop offset="70%" stop-color="#546e35" stop-opacity="1"></stop></linearGradient></defs><defs><linearGradient id="grad1_2" x1="0%" y1="0%" x2="100%" y2="100%"><stop offset="30%" stop-color="#3f4f2c" stop-opacity="1"></stop><stop offset="70%" stop-color="#546e35" stop-opacity="1"></stop></linearGradient></defs><defs><linearGradient id="grad1_3" x1="0%" y1="0%" x2="100%" y2="100%"><stop offset="30%" stop-color="#3f4f2c" stop-opacity="1"></stop><stop offset="70%" stop-color="#2b3221" stop-opacity="1"></stop></linearGradient></defs><defs><linearGradient id="grad1_4" x1="0%" y1="0%" x2="100%" y2="100%"><stop offset="30%" stop-color="#171717" stop-opacity="1"></stop><stop offset="70%" stop-color="#2b3221" stop-opacity="1"></stop></linearGradient></defs><defs><linearGradient id="grad2_0" x1="0%" y1="0%" x2="100%" y2="100%"><stop offset="30%" stop-color="#698f3f" stop-opacity="1"></stop><stop offset="70%" stop-color="#698f3f" stop-opacity="1"></stop></linearGradient></defs><defs><linearGradient id="grad2_1" x1="0%" y1="0%" x2="100%" y2="100%"><stop offset="30%" stop-color="#546e35" stop-opacity="1"></stop><stop offset="70%" stop-color="#698f3f" stop-opacity="1"></stop></linearGradient></defs><defs><linearGradient id="grad2_2" x1="0%" y1="0%" x2="100%" y2="100%"><stop offset="30%" stop-color="#546e35" stop-opacity="1"></stop><stop offset="70%" stop-color="#3f4f2c" stop-opacity="1"></stop></linearGradient></defs><defs><linearGradient id="grad2_3" x1="0%" y1="0%" x2="100%" y2="100%"><stop offset="30%" stop-color="#2b3221" stop-opacity="1"></stop><stop offset="70%" stop-color="#3f4f2c" stop-opacity="1"></stop></linearGradient></defs><defs><linearGradient id="grad2_4" x1="0%" y1="0%" x2="100%" y2="100%"><stop offset="30%" stop-color="#2b3221" stop-opacity="1"></stop><stop offset="70%" stop-color="#171717" stop-opacity="1"></stop></linearGradient></defs><g transform="translate(900, 0)"><path d="M0 540.9C-51.1 513.9 -102.1 486.9 -151.7 467C-201.3 447 -249.5 434.1 -299.8 412.6C-350.1 391.1 -402.5 360.9 -437.6 318C-472.8 275 -490.7 219.2 -505 164.1C-519.4 109 -530.1 54.5 -540.9 0L0 0Z" fill="#21241c"></path><path d="M0 432.7C-40.8 411.1 -81.7 389.5 -121.4 373.6C-161.1 357.6 -199.6 347.3 -239.8 330.1C-280 312.9 -322 288.7 -350.1 254.4C-378.2 220 -392.5 175.4 -404 131.3C-415.5 87.2 -424.1 43.6 -432.7 0L0 0Z" fill="#354026"></path><path d="M0 324.6C-30.6 308.4 -61.3 292.2 -91 280.2C-120.8 268.2 -149.7 260.5 -179.9 247.6C-210 234.6 -241.5 216.6 -262.6 190.8C-283.7 165 -294.4 131.5 -303 98.5C-311.6 65.4 -318.1 32.7 -324.6 0L0 0Z" fill="#495e30"></path><path d="M0 216.4C-20.4 205.6 -40.8 194.8 -60.7 186.8C-80.5 178.8 -99.8 173.6 -119.9 165C-140 156.4 -161 144.4 -175.1 127.2C-189.1 110 -196.3 87.7 -202 65.6C-207.7 43.6 -212.1 21.8 -216.4 0L0 0Z" fill="#5e7e3a"></path><path d="M0 108.2C-10.2 102.8 -20.4 97.4 -30.3 93.4C-40.3 89.4 -49.9 86.8 -60 82.5C-70 78.2 -80.5 72.2 -87.5 63.6C-94.6 55 -98.1 43.8 -101 32.8C-103.9 21.8 -106 10.9 -108.2 0L0 0Z" fill="#698f3f"></path></g><g transform="translate(0, 900)"><path d="M0 -540.9C61.4 -536.7 122.9 -532.4 161.6 -497.4C200.4 -462.4 216.4 -396.6 268 -368.9C319.6 -341.2 406.8 -351.6 437.6 -318C468.5 -284.4 443 -206.8 450.8 -146.5C458.6 -86.2 499.8 -43.1 540.9 0L0 0Z" fill="#21241c"></path><path d="M0 -432.7C49.1 -429.3 98.3 -425.9 129.3 -397.9C160.3 -369.9 173.1 -317.3 214.4 -295.1C255.7 -273 325.4 -281.2 350.1 -254.4C374.8 -227.5 354.4 -165.4 360.6 -117.2C366.9 -68.9 399.8 -34.5 432.7 0L0 0Z" fill="#354026"></path><path d="M0 -324.6C36.9 -322 73.7 -319.5 97 -298.4C120.2 -277.4 129.9 -238 160.8 -221.3C191.8 -204.7 244.1 -210.9 262.6 -190.8C281.1 -170.6 265.8 -124.1 270.5 -87.9C275.2 -51.7 299.9 -25.8 324.6 0L0 0Z" fill="#495e30"></path><path d="M0 -216.4C24.6 -214.7 49.1 -213 64.6 -199C80.1 -185 86.6 -158.6 107.2 -147.6C127.9 -136.5 162.7 -140.6 175.1 -127.2C187.4 -113.7 177.2 -82.7 180.3 -58.6C183.5 -34.5 199.9 -17.2 216.4 0L0 0Z" fill="#5e7e3a"></path><path d="M0 -108.2C12.3 -107.3 24.6 -106.5 32.3 -99.5C40.1 -92.5 43.3 -79.3 53.6 -73.8C63.9 -68.2 81.4 -70.3 87.5 -63.6C93.7 -56.9 88.6 -41.4 90.2 -29.3C91.7 -17.2 100 -8.6 108.2 0L0 0Z" fill="#698f3f"></path></g></svg>