<?xml version="1.0" encoding="UTF-8" standalone="no"?>
<svg
   id="Layer_1"
   data-name="Layer 1"
   viewBox="0 0 692.13491 587.82921"
   version="1.1"
   sodipodi:docname="logoAnimated.svg"
   inkscape:version="1.4.2 (f4327f4, 2025-05-13)"
   width="692.13489"
   height="587.82922"
   xmlns:inkscape="http://www.inkscape.org/namespaces/inkscape"
   xmlns:sodipodi="http://sodipodi.sourceforge.net/DTD/sodipodi-0.dtd"
   xmlns="http://www.w3.org/2000/svg"
   xmlns:svg="http://www.w3.org/2000/svg">
  <sodipodi:namedview
     id="namedview16"
     pagecolor="#ffffff"
     bordercolor="#000000"
     borderopacity="0.25"
     inkscape:showpageshadow="2"
     inkscape:pageopacity="0.0"
     inkscape:pagecheckerboard="0"
     inkscape:deskcolor="#d1d1d1"
     inkscape:zoom="0.34090365"
     inkscape:cx="-64.534363"
     inkscape:cy="350.53893"
     inkscape:window-width="1920"
     inkscape:window-height="1057"
     inkscape:window-x="-8"
     inkscape:window-y="-8"
     inkscape:window-maximized="1"
     inkscape:current-layer="Layer_1" />
  <defs
     id="defs1">
    <style
       id="style1">
      .cls-1 {
        fill: #6b9040;
      }
    </style>
  </defs>
  <path
     class="cls-1"
     d="m 689.98743,321.46277 c -6.58,17.67 -19.66,29.77 -35.23,39.36 -11.88,7.32 -24.89,11.36 -38.94,12.73 -9.71,0.94 -19.26,3.47 -29,4.69 -16.89,2.12 -33.85,1.8 -50.8,1.92 -12.35,0.09 -24.41,1.67 -36.29,5.41 -7.04,2.22 -13.32,5.25 -18.97,8.98 -1.17,0.77 -2.3,1.57 -3.41,2.39 -2.06,1.06 -4.4,1.66 -6.88,1.66 -8.33,0 -15.09,-6.76 -15.09,-15.09 0,-7.22 5.06,-13.25 11.83,-14.74 0,-0.01 0.02,-0.01 0.03,0 0.94,-0.04 1.91,-0.14 2.91,-0.31 0.09,-0.02 0.19,-0.03 0.28,-0.05 12.13,-2.08 21.52,-9.06 29.89,-17.33 18.87,-18.65 41.05,-32.59 63.78,-45.78 15.69,-9.11 32.12,-16.68 49.63,-21.63 16.99,-4.81 34.15,-7.1 51.59,-2.2 6.33,1.78 12.08,4.78 17.19,8.81 9.22,7.27 12.05,18.93 7.48,31.18 z"
     id="path1"
     inkscape:label="rightFinger2" />
  <path
     class="cls-1"
     d="m 370.10743,187.35277 c -4.8,29.91 -7.5,59.72 -0.39,89.43 0,0 0.01,0 0,0.01 0.54,2.29 1.15,4.59 1.82,6.88 0.09,0.31 0.18,0.62 0.28,0.93 0,0.02 0,0.04 0.01,0.06 0.08,0.87 0.13,1.75 0.13,2.64 0,14.26 -11.57,25.82 -25.83,25.82 -14.26,0 -25.82,-11.56 -25.82,-25.82 0,-1.16 0.08,-2.31 0.23,-3.43 0,-0.01 0,-0.02 0.01,-0.03 0.02,-0.06 0.03,-0.11 0.05,-0.17 0.61,-2.08 1.16,-4.16 1.67,-6.24 7.29,-29.92 4.59,-59.96 -0.24,-90.08 -4.83,-30.07 -13.51,-59.23 -20.08,-88.880004 -4.25,-19.21 -7.3,-38.56 -4.47,-58.32 2.79,-19.43 13.89048,-30.866149 32.58,-37.18 0.32,-0.07 7.86928,-2.952766 16.26928,-2.972766 8.4,0.02 15.43072,2.902766 15.75072,2.972766 19.57665,7.960061 29.79,17.75 32.58,37.18 2.83,19.76 -0.22,39.11 -4.47,58.32 -6.57,29.650004 -15.25,58.810004 -20.08,88.880004 z"
     id="path2"
     inkscape:label="middleFinger"
     sodipodi:nodetypes="ccccccsssccccccccccccc" />
  <path
     class="cls-1"
     d="m 271.61743,318.82277 c 0,9.57 -7.76,17.33 -17.33,17.33 -6.55,0 -12.25,-3.64 -15.2,-9 0,-0.01 -0.01,-0.02 -0.01,-0.03 -0.53,-1.61 -1.13,-3.2 -1.76,-4.77 0,-0.01 -0.01,-0.02 -0.01,-0.04 -3.4,-8.4 -8.01,-16.26 -11.35,-24.66 -4.34,-10.91 -10.09,-20.95 -17.49,-30.02 -14.52,-17.81 -32.57,-31.68 -50.87,-45.3 -20.12,-14.99 -40.17,-29.98 -56.39,-49.56 -11.609999,-14.01 -16.959999,-29.15 -14.419999,-47.41 2.77,-19.91 18.489999,-38.830004 37.939999,-43.790004 18.52,-4.71 34.07,1.85 47.82,13.65 14.18,12.170004 21.01,28.780004 26.21,46.130004 7.61,25.39 12.03,51.64 22,76.45 7.1,17.69 12.52,36.06 21.03,53.2 6.02,12.11 12.69,23.8 22.19,33.45 1.31,1.34 2.65,2.62 4.08,3.86 0.01,0.01 0.02,0.01 0.02,0.02 2.22,2.91 3.54,6.54 3.54,10.49 z"
     id="path3"
     inkscape:label="leftFinger1" />
  <path
     class="cls-1"
     d="m 236.95743,383.51277 c 0,8.33 -6.76,15.09 -15.09,15.09 -2.83,0 -5.47,-0.78 -7.73,-2.13 -0.01,0 -0.01,-0.01 -0.01,-0.01 -0.62,-0.44 -1.23,-0.88 -1.87,-1.31 -0.01,0 -0.02,-0.01 -0.03,-0.02 -5.86,-4 -12.43,-7.23 -19.82,-9.56 -11.88,-3.74 -23.94,-5.32 -36.29,-5.41 -16.95,-0.12 -33.91,0.2 -50.8,-1.92 -9.739999,-1.22 -19.289999,-3.75 -28.999999,-4.69 -14.05,-1.37 -27.06,-5.41 -38.94,-12.73 -15.57,-9.59 -28.6500004,-21.69 -35.2300004,-39.36 -4.57,-12.25 -1.74000002,-23.91 7.48,-31.18 5.1100004,-4.03 10.8600004,-7.03 17.1900004,-8.81 17.44,-4.9 34.6,-2.61 51.59,2.2 17.51,4.95 33.939999,12.52 49.629999,21.63 22.73,13.19 44.91,27.13 63.78,45.78 8.37,8.27 17.77,15.26 29.91,17.33 h 0.05 c 0.08,0.02 0.13,0.04 0.21,0.05 1.09,0.18 2.14,0.29 3.16,0.32 q 0,0 0.02,0 c 6.75,1.5 11.79,7.53 11.79,14.73 z"
     id="path4"
     inkscape:label="leftFinger2" />
  <path
     class="cls-1"
     d="m 477.34743,396.94277 c -11.07,8.25 -19.53,19.35 -26.32,32.3 -11.75,22.42 -16.73,46.73 -19.5,71.63 -2.21,19.83 -1.92,39.87 -4.87,59.62 -2.58,17.25 -9.30665,27.24671 -27.36,27.32 -14.10334,-0.26337 -26.59362,-0.25783 -41.83,-0.2 -3.79,-0.19 -18.75072,0.19891 -22.8,0 -14.71783,0.20145 -25.96543,0.24579 -41.83,0.2 -17.68667,-0.0733 -24.78,-10.07 -27.36,-27.32 -2.95,-19.75 -2.66,-39.79 -4.87,-59.62 -2.77,-24.9 -7.75,-49.21 -19.5,-71.63 -6.92,-13.21 -15.58,-24.48 -26.97,-32.77 2.26,1.35 17.78,-26.19 11.03,-27.69 8.19,0.25 14.23,-4.19 16.46,-12.69 2.27,-8.64 0.74,-17.09 -1.53,-25.55 -0.31,-1.14 -0.64,-2.27 -1.01,-3.39 2.95,5.36 31.21,-15.91 28.99,-18.82 0.23,0.21 0.45,0.4 0.68,0.6 16.4,14.07 37.69,9.29 46.35,-10.32 2.13,-4.8 3.96,-9.7 5.43,-14.74 -0.15,1.12 -0.23,2.27 -0.23,3.43 0,14.26 51.65,14.26 51.65,0 0,-0.89 -0.05,-1.77 -0.13,-2.64 1.44,4.76 3.19,9.41 5.2,13.95 8.66,19.61 29.95,24.39 46.35,10.32 0.46,-0.4 0.92,-0.8 1.37,-1.21 -2.52,3 25.01,25.13 28.06,20.19 -0.27,0.87 -0.53,1.74 -0.77,2.63 -2.27,8.46 -3.8,16.91 -1.53,25.55 2.25,8.59 8.39,13.03 16.7,12.68 -6.77,1.49 8.08,29.23 10.14,28.17 z"
     id="path5"
     inkscape:label="palm"
     sodipodi:nodetypes="ccccccccccccccccccccssccccccccc" />
  <path
     class="cls-1"
     d="m 590.92743,172.77277 c -16.22,19.58 -36.27,34.57 -56.39,49.56 -18.3,13.62 -36.35,27.49 -50.87,45.3 -7.4,9.07 -13.15,19.11 -17.49,30.02 -3.24,8.12 -7.64,15.73 -11,23.81 0,0.01 0,0.02 -0.01,0.03 -0.87,2.1 -1.67,4.23 -2.36,6.41 v 0 c -3.05,4.95 -8.52,8.25 -14.76,8.25 -9.57,0 -17.33,-7.76 -17.33,-17.33 0,-4.23 1.51,-8.1 4.03,-11.1 1.01,-0.9 1.98,-1.83 2.93,-2.78 9.75,-9.75 16.55,-21.63 22.67,-33.94 8.51,-17.14 13.93,-35.51 21.03,-53.2 9.97,-24.81 14.39,-51.06 22,-76.45 5.2,-17.35 12.03,-33.96 26.21,-46.130004 13.75,-11.8 29.3,-18.36 47.82,-13.65 19.45,4.96 35.17,23.880004 37.94,43.790004 2.54,18.26 -2.81,33.4 -14.42,47.41 z"
     id="path10"
     inkscape:label="rightFinger1" />
</svg>
