<?xml version="1.0" encoding="UTF-8" standalone="no"?>
<!-- Created with Inkscape (http://www.inkscape.org/) -->

<svg
   version="1.1"
   id="svg1"
   width="706.28583"
   height="737.09625"
   viewBox="0 0 706.28583 737.09625"
   sodipodi:docname="logo.svg"
   inkscape:export-filename="..\geckoai\geckoai\geckoai\geckoai\geckoai\geckoai\geckoai\geckoai\geckoai\geckoai\geckoai\geckoai\public\logo.svg"
   inkscape:export-xdpi="67.961151"
   inkscape:export-ydpi="67.961151"
   xmlns:inkscape="http://www.inkscape.org/namespaces/inkscape"
   xmlns:sodipodi="http://sodipodi.sourceforge.net/DTD/sodipodi-0.dtd"
   xmlns="http://www.w3.org/2000/svg"
   xmlns:svg="http://www.w3.org/2000/svg">
  <defs
     id="defs1" />
  <sodipodi:namedview
     id="namedview1"
     pagecolor="#ffffff"
     bordercolor="#000000"
     borderopacity="0.25"
     inkscape:showpageshadow="2"
     inkscape:pageopacity="0.0"
     inkscape:pagecheckerboard="0"
     inkscape:deskcolor="#d1d1d1">
    <inkscape:page
       x="0"
       y="0"
       width="706.28583"
       height="737.09625"
       id="page2"
       margin="0"
       bleed="0" />
  </sodipodi:namedview>
  <g
     inkscape:groupmode="layer"
     inkscape:label="Image"
     id="g1"
     transform="translate(-194.84477,-123.22941)">
    <path
       style="fill:#698f3f;fill-opacity:1;stroke-width:0.840973"
       d="m 499.27378,859.92395 c -7.51774,-1.07661 -14.01368,-2.3046 -15.11456,-2.85727 -0.70643,-0.35464 -2.98737,-1.29266 -5.06878,-2.08449 -8.2502,-3.13862 -14.01691,-6.74433 -20.16593,-12.60902 -4.23569,-4.03982 -8.42714,-11.3769 -8.42714,-14.75158 0,-0.82898 -0.47304,-1.6649 -1.05121,-1.85763 -0.78004,-0.26001 -1.05122,-3.67691 -1.05122,-13.24531 0,-9.56841 0.27118,-12.98531 1.05122,-13.24532 0.57817,-0.19273 1.06115,-0.98114 1.0733,-1.75203 0.0361,-2.28772 3.87579,-17.33756 4.92231,-19.293 0.53118,-0.99251 1.55452,-4.75251 2.27409,-8.35556 0.71957,-3.60304 1.85509,-7.75501 2.52338,-9.22659 0.66828,-1.47159 1.98538,-6.58049 2.92688,-11.35313 0.9415,-4.77264 2.04931,-9.4344 2.46179,-10.35947 0.41249,-0.92507 0.95906,-2.81726 1.21459,-4.20486 1.05072,-5.70563 2.99724,-26.20652 2.99724,-31.56705 0,-3.16633 0.37844,-5.99085 0.84097,-6.27672 1.07013,-0.66137 1.10789,-15.93259 0.0442,-17.88208 -0.43822,-0.80316 -1.41443,-4.48779 -2.16936,-8.18807 -0.75493,-3.70027 -2.28858,-8.51839 -3.4081,-10.70691 -1.11953,-2.18853 -2.0355,-4.41999 -2.0355,-4.9588 0,-0.5388 -1.32453,-2.97514 -2.9434,-5.41407 -1.61888,-2.43894 -2.94341,-4.77737 -2.94341,-5.19653 0,-0.41916 -0.94609,-1.65091 -2.10243,-2.73724 -1.15634,-1.08632 -2.10243,-2.44936 -2.10243,-3.02895 0,-0.57961 -0.94609,-1.79803 -2.10243,-2.70761 -1.15634,-0.90958 -2.10243,-1.9108 -2.10243,-2.22494 0,-1.17958 -9.77883,-11.57842 -16.42349,-17.46478 -10.51356,-9.31375 -12.27561,-10.74718 -14.84313,-12.07489 -1.30476,-0.67472 -2.37228,-1.60484 -2.37228,-2.06695 0,-0.4621 -0.87282,-1.17203 -1.9396,-1.57762 -1.06677,-0.40559 -3.05357,-1.66903 -4.4151,-2.80766 -1.36154,-1.13864 -4.08388,-2.88652 -6.04965,-3.8842 -1.96577,-0.99768 -3.57413,-2.1847 -3.57413,-2.63784 0,-0.45314 -0.47305,-0.8255 -1.05122,-0.82748 -0.57817,-0.002 -2.75418,-1.14927 -4.83559,-2.54952 -4.93594,-3.32062 -26.25602,-13.70289 -31.11598,-15.15258 -2.08141,-0.62088 -4.54125,-1.57301 -5.46632,-2.11586 -0.92507,-0.54284 -4.52023,-1.67539 -7.98924,-2.51677 -3.46901,-0.84138 -6.69202,-1.80905 -7.16223,-2.15039 -3.40168,-2.46931 -47.52534,-6.9393 -49.4546,-5.01004 -0.50727,0.50727 -4.4388,0.94277 -8.93698,0.98997 -4.41721,0.0463 -11.81567,0.34419 -16.44101,0.66187 -18.60994,1.27816 -34.21459,-1.77673 -44.76885,-8.76429 -2.42119,-1.60298 -4.61915,-2.9145 -4.88435,-2.9145 -0.60797,0 -6.76971,-6.31063 -9.90035,-10.13959 -4.54804,-5.56249 -8.19941,-12.48279 -9.69622,-18.37686 -0.82963,-3.26686 -1.76604,-6.19737 -2.0809,-6.51224 -0.90863,-0.90863 -0.66402,-16.11479 0.26849,-16.69112 0.46254,-0.28586 0.84097,-1.36201 0.84097,-2.39146 0,-3.01462 3.27468,-11.47237 5.9441,-15.35223 1.3561,-1.97102 2.46563,-3.91737 2.46563,-4.32521 0,-0.40785 1.13531,-1.58091 2.52292,-2.60682 1.3876,-1.0259 2.52291,-2.39609 2.52291,-3.04488 0,-0.64878 0.76696,-1.42303 1.70435,-1.72055 0.9374,-0.29751 2.30545,-1.45833 3.04013,-2.57959 0.73467,-1.12126 1.65041,-2.03865 2.03497,-2.03865 0.38456,0 2.9809,-1.33727 5.76964,-2.97171 2.78875,-1.63444 7.6341,-3.55688 10.76746,-4.27209 3.13335,-0.71521 6.35413,-1.64857 7.15729,-2.07412 1.76981,-0.93775 14.0977,-1.04172 14.0977,-0.11891 0,0.36017 2.61991,1.06737 5.82201,1.57159 7.22584,1.13778 19.02283,6.69263 28.07824,13.2212 3.61275,2.60465 6.91535,4.73571 7.33912,4.73571 0.42377,0 1.39039,0.9461 2.14805,2.10243 0.75766,1.15634 1.77773,2.10244 2.26682,2.10244 0.48909,0 3.01834,1.85182 5.62055,4.11515 2.60222,2.26334 6.04875,5.0092 7.65896,6.10192 1.61022,1.09273 3.83928,2.83606 4.95346,3.87408 1.11419,1.03803 2.33716,1.88732 2.71771,1.88732 0.38055,0 2.90955,1.51375 5.62001,3.36389 2.71045,1.85014 5.13475,3.36389 5.38732,3.36389 0.25258,0 3.30346,1.68156 6.77975,3.73681 3.47629,2.05523 8.33264,4.56183 10.79189,5.57019 2.45925,1.00837 6.36355,2.69866 8.67622,3.7562 2.31268,1.05753 5.97206,2.72514 8.13197,3.70577 2.1599,0.98064 5.94428,2.36275 8.40972,3.07134 2.46544,0.7086 5.76646,1.87587 7.3356,2.59396 1.56913,0.71807 7.2457,2.06059 12.61459,2.98337 5.36888,0.92279 10.41874,2.01476 11.2219,2.42661 2.04567,1.049 20.82548,0.96589 20.82548,-0.0922 0,-0.46254 0.70929,-0.84098 1.57621,-0.84098 5.34528,0 13.70888,-5.53256 14.77302,-9.77242 0.27624,-1.10065 0.87349,-2.00119 1.32722,-2.00119 0.45372,0 0.82495,-1.70297 0.82495,-3.78438 0,-2.0814 -0.37844,-3.78437 -0.84098,-3.78437 -0.46253,0 -0.84097,-1.0578 -0.84097,-2.35067 0,-2.62517 -3.99671,-18.62241 -4.98054,-19.93511 -0.34666,-0.46253 -1.31811,-3.11159 -2.15878,-5.8868 -0.84067,-2.77521 -2.2273,-6.36477 -3.08139,-7.97679 -0.8541,-1.61202 -1.5529,-3.24349 -1.5529,-3.62546 0,-0.38199 -1.55361,-3.98276 -3.45246,-8.0017 -1.89884,-4.01895 -3.79742,-8.06405 -4.21906,-8.98912 -0.42164,-0.92507 -1.83731,-3.57413 -3.14593,-5.88681 -1.30862,-2.31267 -3.62131,-6.47549 -5.13931,-9.25069 -1.518,-2.77521 -3.46842,-6.05036 -4.33426,-7.27809 -0.86585,-1.22774 -1.57427,-2.57552 -1.57427,-2.99508 0,-0.41955 -0.66226,-1.49644 -1.4717,-2.39309 -1.50119,-1.66293 -7.39954,-10.16579 -9.18892,-13.2464 -0.54419,-0.93689 -1.58489,-2.03666 -2.31268,-2.44395 -0.72777,-0.40729 -1.32323,-1.14839 -1.32323,-1.64688 0,-1.15672 -10.09695,-13.09234 -19.34237,-22.86463 -7.72945,-8.16994 -25.85337,-24.08087 -27.43018,-24.08087 -0.53319,0 -1.58935,-0.94609 -2.34701,-2.10243 -0.75766,-1.15634 -1.76593,-2.10243 -2.24059,-2.10243 -0.47467,0 -3.9665,-2.47636 -7.75961,-5.503 -3.79313,-3.02665 -8.0319,-6.40866 -9.4195,-7.51559 -1.38761,-1.10692 -3.65823,-2.88705 -5.04584,-3.95586 -1.3876,-1.0688 -3.46901,-2.68622 -4.62535,-3.59426 -4.73905,-3.72144 -19.34236,-18.9785 -19.34236,-20.20825 0,-0.72845 -0.52133,-1.52451 -1.15852,-1.76902 -1.47771,-0.56705 -6.68343,-11.13148 -8.44415,-17.13648 -5.30108,-18.07946 -0.0362,-38.87994 13.30315,-52.55847 7.23989,-7.42396 13.50357,-11.53585 21.20173,-13.91826 3.18631,-0.98608 6.7024,-2.23797 7.81355,-2.78198 2.52371,-1.23557 22.07644,-1.32309 23.72011,-0.10616 0.64391,0.47673 3.44137,1.5873 6.21658,2.46793 2.77521,0.88063 6.62777,2.66296 8.56125,3.96073 1.93347,1.29778 3.90894,2.3596 4.38993,2.3596 0.48098,0 1.71388,1.13531 2.73978,2.52291 1.02591,1.38761 2.29837,2.52292 2.82769,2.52292 0.52933,0 1.8773,1.29623 2.99549,2.88052 5.28759,7.49154 10.8633,16.01179 10.8633,16.60019 0,0.35903 0.9259,2.67702 2.05756,5.15106 1.13165,2.47406 2.84342,7.49958 3.80392,11.16782 0.9605,3.66824 2.08637,7.4264 2.50193,8.35147 0.41554,0.92507 1.59436,5.46632 2.61958,10.09167 1.02522,4.62535 2.13493,8.78816 2.46601,9.2507 0.33108,0.46253 1.25248,3.49003 2.04754,6.72778 0.79506,3.23774 1.95229,7.02212 2.57161,8.40972 0.61933,1.38761 1.88821,4.80862 2.81975,7.60225 0.93154,2.79363 2.25714,6.19957 2.94577,7.56875 0.68864,1.36918 4.0071,8.16599 7.37437,15.10401 3.36727,6.93803 7.32052,14.50678 8.785,16.81945 1.46448,2.31268 2.93004,5.05635 3.25679,6.09705 0.32674,1.04071 0.95639,1.89219 1.3992,1.89219 0.44282,0 1.18733,1.00529 1.65447,2.23398 0.46715,1.22868 1.97154,3.89672 3.34308,5.92896 1.37154,2.03225 2.49372,3.9992 2.49372,4.37101 0,0.3718 0.94609,1.69686 2.10243,2.94457 1.15634,1.24771 2.10243,2.50934 2.10243,2.80363 0,0.29428 1.70297,2.70266 3.78438,5.35196 2.0814,2.6493 3.78437,5.18378 3.78437,5.63219 0,0.4484 0.9461,1.43518 2.10243,2.19284 1.15634,0.75766 2.10244,1.80955 2.10244,2.33753 0,2.45767 18.05216,19.72929 26.05823,24.93153 6.2996,4.0934 8.83382,4.75149 13.47983,3.50045 7.45989,-2.00875 13.2647,-11.66808 15.47253,-25.7467 0.73401,-4.68054 1.33456,-10.04174 1.33456,-11.91378 0,-1.87203 0.36869,-3.52984 0.8193,-3.68402 1.59319,-0.54511 2.74352,-49.46917 1.72356,-73.3036 -0.51787,-12.10175 -1.30187,-22.36348 -1.74222,-22.80382 -0.44035,-0.44035 -0.80451,-1.95488 -0.80925,-3.36561 -0.0134,-3.98503 -4.07386,-28.86032 -4.98175,-30.51918 -0.44545,-0.8139 -1.5936,-5.56494 -2.55146,-10.55785 -0.95785,-4.99292 -2.09568,-9.72339 -2.5285,-10.51216 -0.43283,-0.78877 -1.60632,-5.40772 -2.60776,-10.26434 -1.00144,-4.85662 -2.09497,-9.20865 -2.43008,-9.67118 -0.33511,-0.46254 -1.2766,-4.0577 -2.09221,-7.98924 -0.8156,-3.93155 -2.05116,-9.22968 -2.74569,-11.77362 -3.54622,-12.98936 -3.68357,-31.22921 -0.30082,-39.94619 3.75339,-9.67206 4.64593,-11.77636 5.17209,-12.1941 0.2913,-0.23127 1.21156,-1.8717 2.04504,-3.64541 2.18757,-4.65529 14.44854,-16.85129 19.17425,-19.07263 2.17095,-1.02047 3.94717,-2.1447 3.94717,-2.4983 0,-0.35359 2.74368,-1.54184 6.09706,-2.64054 11.12761,-3.64587 34.7646,-2.34661 40.15643,2.20729 0.69381,0.58598 2.96055,1.92036 5.03722,2.9653 5.14302,2.58786 10.89585,7.57534 15.50548,13.44266 2.11503,2.6921 3.84551,5.08877 3.84551,5.32595 0,0.23718 1.31,2.63438 2.91112,5.3271 1.60112,2.69273 3.53404,7.35571 4.29537,10.36219 0.76133,3.00648 1.81656,5.99753 2.34495,6.64679 1.30682,1.60575 1.29544,23.52079 -0.0136,26.23407 -0.53588,1.11072 -1.78263,6.51747 -2.77055,12.015 -0.98792,5.49752 -2.29252,10.98486 -2.89912,12.1941 -0.60659,1.20923 -1.95551,5.79376 -2.99759,10.18784 -1.04209,4.39408 -2.19699,8.36768 -2.56645,8.83021 -0.36946,0.46254 -1.47219,4.21854 -2.45052,8.34668 -0.97832,4.12814 -2.10769,7.91252 -2.5097,8.40973 -0.40201,0.49721 -1.55388,5.2334 -2.55971,10.52487 -1.00584,5.29147 -2.16032,10.24029 -2.56551,10.9974 -0.98139,1.83375 -5.03811,30.7764 -5.03811,35.94442 0,2.2393 -0.3297,4.43096 -0.73266,4.87037 -1.56134,1.70256 -4.26477,52.5097 -4.29453,80.70951 -0.0207,19.62124 0.97386,25.55895 5.34552,31.91395 3.4426,5.00444 7.56245,6.55785 16.41036,6.18762 6.17624,-0.25844 8.06672,-0.71635 12.87675,-3.11894 3.10075,-1.54882 7.1345,-4.09722 8.96389,-5.66311 1.8294,-1.56589 3.58182,-2.84708 3.89427,-2.84708 0.72332,0 13.18044,-12.52808 14.30204,-14.38352 0.46254,-0.76516 3.20048,-4.18072 6.08433,-7.59013 2.88385,-3.40942 5.24909,-6.63149 5.25608,-7.16017 0.007,-0.52869 0.56328,-1.17251 1.23618,-1.43073 0.67291,-0.25822 2.00514,-2.00168 2.9605,-3.87435 0.95537,-1.87268 2.10778,-3.40487 2.56091,-3.40487 0.45314,0 0.82388,-0.41289 0.82388,-0.91754 0,-0.50465 1.51375,-3.07554 3.36389,-5.7131 1.85014,-2.63755 3.36389,-5.12183 3.36389,-5.52061 0,-0.39878 0.97017,-1.99701 2.15592,-3.55161 1.18576,-1.55461 2.90644,-4.52322 3.82373,-6.59692 0.9173,-2.0737 1.93393,-3.77178 2.25918,-3.77352 0.32527,-0.002 1.31782,-1.79931 2.20567,-3.99462 0.88787,-2.1953 2.30701,-4.89399 3.15365,-5.99706 0.84665,-1.10308 1.53936,-2.54478 1.53936,-3.20376 0,-0.65899 1.51375,-4.36978 3.36389,-8.2462 1.85014,-3.87642 3.36622,-7.54364 3.36907,-8.14937 0.003,-0.60573 0.60627,-2.23664 1.34094,-3.62425 0.73466,-1.3876 2.08585,-5.35734 3.00262,-8.82164 0.91677,-3.46429 1.97087,-6.68101 2.34244,-7.14827 0.37156,-0.46724 1.49025,-4.4447 2.48599,-8.83878 0.99573,-4.39408 2.16856,-8.74611 2.60628,-9.67118 0.43773,-0.92507 1.78393,-5.46632 2.99156,-10.09167 1.20764,-4.62535 2.50569,-8.78816 2.88455,-9.2507 0.37888,-0.46253 1.51266,-3.30082 2.51952,-6.30729 1.00687,-3.00648 2.29482,-6.03398 2.8621,-6.72778 0.5673,-0.69381 1.74878,-2.96443 2.62553,-5.04584 0.87675,-2.08141 2.4615,-4.68746 3.52168,-5.79124 1.06017,-1.10377 1.92759,-2.51052 1.92759,-3.1261 0,-1.42659 12.15481,-13.78892 13.55746,-13.78892 0.57814,0 1.83242,-0.71186 2.78731,-1.58191 0.95488,-0.87005 4.19599,-2.40864 7.20246,-3.41908 3.00648,-1.01045 6.37526,-2.28539 7.48617,-2.8332 1.20589,-0.59465 5.6115,-0.96624 10.93265,-0.92213 15.21239,0.12611 28.60134,5.67394 39.51625,16.37389 5.55282,5.44345 10.71796,13.33557 12.88082,19.68132 0.95203,2.7932 2.15125,5.6067 2.66493,6.25222 1.31702,1.65505 1.25307,22.76437 -0.0769,25.39648 -0.56221,1.1126 -1.80619,4.41794 -2.76441,7.34519 -4.13185,12.62241 -12.43673,21.86412 -41.30642,45.96602 -1.1008,0.919 -3.15851,2.46651 -4.57269,3.43891 -1.41418,0.9724 -3.49559,2.54948 -4.62535,3.50463 -1.12976,0.95515 -5.78171,4.89499 -10.33766,8.7552 -4.55595,3.86021 -9.11657,7.58621 -10.13471,8.28001 -5.58485,3.80576 -33.58147,34.45508 -36.4178,39.86842 -0.62828,1.19911 -1.47129,2.18021 -1.87337,2.18021 -0.40208,0 -1.48106,1.22992 -2.39773,2.73316 -0.91668,1.50324 -2.29027,3.49003 -3.05241,4.4151 -3.82824,4.64658 -8.06163,10.7966 -8.06163,11.71147 0,0.56673 -0.9461,1.91923 -2.10243,3.00555 -1.15634,1.08633 -2.10244,2.4033 -2.10244,2.92661 0,0.52332 -0.93364,2.21697 -2.07475,3.76367 -1.94345,2.63419 -13.40657,25.28564 -17.04247,33.67641 -0.90192,2.0814 -2.13714,5.67656 -2.74493,7.98923 -0.60781,2.31268 -1.4128,4.60761 -1.78889,5.09985 -1.26278,1.65281 -3.2351,11.67407 -3.24765,16.5012 -0.0115,4.43887 0.23796,5.05672 3.48081,8.61997 1.92127,2.11111 3.87827,3.83837 4.34888,3.83837 0.47061,0 1.52945,0.60977 2.35296,1.35504 0.91118,0.8246 3.66075,1.5287 7.02404,1.79868 5.5631,0.44654 19.83497,-1.06698 22.26247,-2.36093 0.71807,-0.38276 4.05188,-1.27549 7.40847,-1.98384 3.35659,-0.70835 8.19289,-2.24389 10.74732,-3.41232 2.55444,-1.16842 5.05049,-2.12441 5.54679,-2.12441 0.49629,0 2.66109,-0.89653 4.81067,-1.99229 2.14957,-1.09575 6.93582,-3.42937 10.63609,-5.18582 3.70028,-1.75645 8.72193,-4.45508 11.15922,-5.99696 2.43729,-1.54187 4.64865,-2.80341 4.91414,-2.80341 0.98617,0 18.827,-12.12992 18.827,-12.80041 0,-0.38323 0.85149,-1.02968 1.89219,-1.43657 2.14839,-0.83996 14.03825,-10.30164 17.91728,-14.25815 1.41322,-1.44147 2.90395,-2.62085 3.3127,-2.62085 0.40875,0 2.09075,-1.33804 3.73777,-2.97342 4.63039,-4.59765 16.21119,-13.84603 17.33796,-13.84603 0.55478,0 1.46408,-0.54873 2.02068,-1.21939 1.04459,-1.25865 6.58543,-4.08974 9.91634,-5.06673 1.0407,-0.30526 1.89219,-0.84772 1.89219,-1.20548 0,-0.79192 6.98101,-2.31075 13.99281,-3.04436 6.66538,-0.69736 17.18443,0.90133 22.82466,3.46891 2.44201,1.11167 4.73153,2.02121 5.08781,2.02121 0.35629,0 2.89952,1.63871 5.65165,3.64158 7.20331,5.24226 16.23451,15.28618 18.65472,20.74663 1.12754,2.54394 2.56487,5.76066 3.19406,7.14826 3.53012,7.78522 3.75875,27.10271 0.40808,34.47988 -0.42016,0.92507 -1.61365,3.76335 -2.6522,6.30729 -7.08375,17.3518 -30.90133,34.47987 -47.94628,34.47987 -1.72566,0 -3.37146,0.37844 -3.65732,0.84098 -0.30399,0.49187 -5.29934,0.85366 -12.03349,0.87155 -22.51264,0.0598 -54.82383,2.60562 -54.82383,4.31964 0,0.38259 -0.87482,0.69561 -1.94404,0.69561 -2.43233,0 -14.43979,3.10995 -17.81881,4.61509 -1.3876,0.61809 -4.60432,1.76722 -7.14827,2.55363 -5.48029,1.69411 -7.44877,2.55841 -23.96771,10.52348 -6.93803,3.34535 -14.12834,7.1029 -15.97848,8.35009 -1.85014,1.24719 -3.98719,2.49371 -4.74899,2.77006 -0.7618,0.27634 -3.99888,2.32685 -7.19353,4.55669 -3.19463,2.22983 -6.73415,4.58315 -7.8656,5.22959 -1.13144,0.64644 -5.96939,4.2416 -10.751,7.98924 -4.7816,3.74764 -9.51207,7.38635 -10.51215,8.08602 -5.15953,3.60968 -30.1202,28.05192 -35.88331,35.13801 -1.61579,1.98672 -3.69469,4.49074 -4.61976,5.56448 -0.92507,1.07374 -2.06038,2.5378 -2.52291,3.25347 -0.46254,0.71567 -3.04212,4.17722 -5.73241,7.69235 -2.69029,3.51512 -5.35694,7.23745 -5.92589,8.27182 -0.56896,1.03438 -3.00362,4.90818 -5.41037,8.60846 -2.40675,3.70028 -4.37596,7.07308 -4.37602,7.49513 -6e-5,0.42204 -1.11061,2.50344 -2.46788,4.62534 -1.35727,2.1219 -3.10478,5.7502 -3.88335,8.06287 -0.77857,2.31267 -1.68711,4.39408 -2.01896,4.62535 -0.68537,0.47762 -6.84943,14.03749 -8.41039,18.50139 -0.56611,1.61888 -1.52227,3.8895 -2.12481,5.04584 -0.60256,1.15634 -1.9343,5.12993 -2.95945,8.83021 -1.02513,3.70028 -2.16138,7.10622 -2.525,7.56875 -0.36361,0.46254 -1.51148,4.24692 -2.55081,8.40973 -1.03934,4.16281 -2.16376,7.94719 -2.49872,8.40972 -0.33495,0.46254 -1.47936,4.81457 -2.54313,9.67119 -1.06377,4.85662 -2.20813,9.20865 -2.54302,9.67118 -0.33489,0.46254 -1.43144,5.00379 -2.43677,10.09167 -1.00534,5.08789 -2.35109,10.95367 -2.99055,13.03508 -1.04786,3.41073 -2.72438,12.77794 -4.26259,23.81631 -0.31066,2.22939 -1.464,5.91731 -2.56296,8.19536 -1.09898,2.27804 -1.99813,4.51347 -1.99813,4.9676 0,0.45415 -0.90657,1.41972 -2.01459,2.14573 -1.10802,0.726 -2.2074,2.05735 -2.44308,2.95854 -0.23566,0.9012 -1.12667,1.89352 -1.98002,2.20516 -0.85336,0.31164 -2.69695,1.54347 -4.09689,2.7374 -5.13738,4.3814 -14.81301,8.12415 -23.97077,9.27244 -6.69358,0.8393 -18.06469,1.01851 -22.68078,0.35746 z"
       id="path10" />
  </g>
</svg>
