<?xml version="1.0" encoding="UTF-8" standalone="no"?>
<!-- Created with Inkscape (http://www.inkscape.org/) -->

<svg
   version="1.1"
   id="svg1"
   width="692.92487"
   height="576.1712"
   viewBox="0 0 692.92487 576.1712"
   sodipodi:docname="logo.svg"
   inkscape:export-filename="..\geckoai\geckoai\geckoai\geckoai\geckoai\geckoai\geckoai\geckoai\geckoai\geckoai\geckoai\geckoai\public\logo.svg"
   inkscape:export-xdpi="67.961151"
   inkscape:export-ydpi="67.961151"
   inkscape:version="1.4.2 (f4327f4, 2025-05-13)"
   xmlns:inkscape="http://www.inkscape.org/namespaces/inkscape"
   xmlns:sodipodi="http://sodipodi.sourceforge.net/DTD/sodipodi-0.dtd"
   xmlns="http://www.w3.org/2000/svg"
   xmlns:svg="http://www.w3.org/2000/svg">
  <defs
     id="defs1" />
  <sodipodi:namedview
     id="namedview1"
     pagecolor="#ffffff"
     bordercolor="#000000"
     borderopacity="0.25"
     inkscape:showpageshadow="2"
     inkscape:pageopacity="0.0"
     inkscape:pagecheckerboard="0"
     inkscape:deskcolor="#d1d1d1"
     inkscape:zoom="1.1599571"
     inkscape:cx="293.97639"
     inkscape:cy="339.23668"
     inkscape:window-width="1920"
     inkscape:window-height="1057"
     inkscape:window-x="-8"
     inkscape:window-y="-8"
     inkscape:window-maximized="1"
     inkscape:current-layer="g1">
    <inkscape:page
       x="4.9651847e-09"
       y="2.7820921e-14"
       width="692.92487"
       height="576.1712"
       id="page2"
       margin="0"
       bleed="0" />
  </sodipodi:namedview>
  <g
     inkscape:groupmode="layer"
     inkscape:label="Image"
     id="g1"
     transform="translate(-205.91965,-150.41709)">
    <g
       id="g2">
      <path
         style="fill:#698f3f;fill-opacity:1;stroke-width:0.840973"
         d="m 551.7335,725.98286 c 0,0 -18.82687,0.19625 -70.3928,-1.61886 14.31124,-23.68024 -10.68763,-120.25885 -53.99523,-159.45642 -41.5461,-43.0804 -84.41227,-45.8656 -139.88413,-25.39314 -54.85775,7.07599 -118.33758,-65.33405 -55.34126,-89.99898 55.42783,-20.61847 156.93957,50.84137 201.03551,71.49483 48.93011,35.42038 53.22208,-16.97519 17.64348,-67.48428 -31.0786,-71.8596 -150.05958,-93.78618 -162.57215,-175.93817 3.47698,-54.13936 83.40149,-66.70099 103.00661,-15.2781 34.25881,54.91436 48.98423,174.05288 112.14986,208.74709 69.60417,4.19762 26.52317,-129.17434 18.16403,-170.88727 -7.03873,-56.22559 -62.57233,-139.05137 30.10745,-149.63044 78.31071,-4.09975 45.50049,96.13568 32.79735,145.43907 -10.9333,53.0185 -23.53721,109.14093 2.71554,159.90926 44.83463,41.59764 78.50399,-50.79735 90.98067,-91.27679 20.81364,-43.05385 14.63795,-109.06233 64.36382,-131.51132 53.76966,-22.73668 93.08101,48.2928 55.33136,87.83207 -37.20969,48.24462 -110.67562,70.87219 -131.87363,132.61456 -36.62888,64.22761 -6.91238,95.94494 37.02676,48.068 31.34099,-26.27807 132.80873,-97.53162 182.94011,-64.59302 37.64109,24.18588 -14.01575,84.90753 -65.51042,86.00408 -65.69762,14.96646 -79.91181,11.25529 -124.91034,38.26331 -56.98157,44.50745 -51.4912,129.15099 -52.71488,152.93462 -25.1774,16.39791 -91.06771,11.7599 -91.06771,11.7599 z"
         id="path10"
         sodipodi:nodetypes="cccccccccccccccccccccccc" />
    </g>
  </g>
</svg>
