<?xml version="1.0" encoding="UTF-8" standalone="no"?>
<!-- Created with Inkscape (http://www.inkscape.org/) -->

<svg
   width="118.66553mm"
   height="85.771278mm"
   viewBox="0 0 118.66553 85.771278"
   version="1.1"
   id="svg1"
   xml:space="preserve"
   inkscape:version="1.4.2 (f4327f4, 2025-05-13)"
   sodipodi:docname="taillink.svg"
   xmlns:inkscape="http://www.inkscape.org/namespaces/inkscape"
   xmlns:sodipodi="http://sodipodi.sourceforge.net/DTD/sodipodi-0.dtd"
   xmlns="http://www.w3.org/2000/svg"
   xmlns:svg="http://www.w3.org/2000/svg"><sodipodi:namedview
     id="namedview1"
     pagecolor="#ffffff"
     bordercolor="#000000"
     borderopacity="0.25"
     inkscape:showpageshadow="2"
     inkscape:pageopacity="0.0"
     inkscape:pagecheckerboard="0"
     inkscape:deskcolor="#d1d1d1"
     inkscape:document-units="mm"
     inkscape:zoom="1.0771772"
     inkscape:cx="101.19041"
     inkscape:cy="61.735433"
     inkscape:window-width="1920"
     inkscape:window-height="1057"
     inkscape:window-x="-8"
     inkscape:window-y="-8"
     inkscape:window-maximized="1"
     inkscape:current-layer="layer1" /><defs
     id="defs1" /><g
     inkscape:label="Layer 1"
     inkscape:groupmode="layer"
     id="layer1"
     transform="translate(-44.204187,-141.67981)"><path
       style="fill:#698f3f;fill-opacity:1;stroke-width:0.245626"
       d="m 113.35666,227.32625 c -7.3689,-0.69099 -14.610031,-2.70248 -21.246699,-5.8939 -10.807359,-4.98123 -20.224639,-13.01257 -27.867483,-22.19451 -7.473151,-9.24588 -13.071805,-19.96588 -16.348755,-31.35208 -2.189472,-7.36213 -3.170787,-15.05545 -3.511785,-22.73311 -0.102468,-2.05578 -0.822974,-2.74092 1.618508,-3.12995 8.484642,-0.0153 17.769389,-0.45628 26.252726,-0.31503 -0.897733,4.71076 -2.814319,9.55585 -3.252446,14.53953 -0.717793,8.43742 1.405242,16.99902 5.31453,24.41098 5.380116,10.73967 14.888704,19.54084 25.900374,24.31703 9.07344,4.04282 19.73319,5.65105 29.46572,2.96012 8.10535,-2.05152 14.32748,-9.40517 15.45509,-17.62335 1.82124,-5.71695 0.22148,-11.8564 -1.74811,-17.30225 -2.78888,-5.66039 -7.57437,-10.65975 -13.8976,-12.06309 -4.96157,-0.9351 -10.63634,-1.19888 -15.1373,1.47799 -7.70818,3.60934 -11.19408,14.40497 -6.38642,21.58984 2.96319,3.6254 8.78113,5.54036 12.77958,2.57179 5.66327,-3.96384 0.1897,-7.14939 -3.70554,-8.73194 -2.86715,-5.14767 5.31934,-7.40521 8.78453,-4.67529 6.4274,1.72263 9.3735,9.80741 7.05513,15.70764 -1.67431,6.51307 -8.41277,11.35168 -15.15199,10.54445 -6.67127,0.50203 -13.09827,-2.02414 -18.804333,-5.24656 -6.787711,-4.07203 -11.591843,-11.64834 -10.934803,-19.70127 -0.373198,-7.40769 3.235168,-14.38381 8.060639,-19.69931 4.875927,-5.38109 11.452257,-8.92818 18.598767,-10.26727 8.0181,-1.60907 16.32658,0.2042 23.663,3.51236 8.37404,4.25694 15.53001,11.20483 19.74869,19.61395 4.31396,8.43491 6.1733,18.55138 3.70539,27.87556 -2.56385,11.406 -11.24004,20.89187 -21.55779,26.02041 -8.11788,4.44017 -17.56997,6.45424 -26.85162,5.7871 z"
       id="path10"
       sodipodi:nodetypes="ccccccccccccccccccccccccccccccc" /></g></svg>
